<?xml version="1.0" encoding="utf-8" standalone="no"?>
<!DOCTYPE svg PUBLIC "-//W3C//DTD SVG 1.1//EN"
  "http://www.w3.org/Graphics/SVG/1.1/DTD/svg11.dtd">
<svg xmlns:xlink="http://www.w3.org/1999/xlink" width="640.448359pt" height="363.457094pt" viewBox="0 0 640.448359 363.457094" xmlns="http://www.w3.org/2000/svg" version="1.1">
 <metadata>
  <rdf:RDF xmlns:dc="http://purl.org/dc/elements/1.1/" xmlns:cc="http://creativecommons.org/ns#" xmlns:rdf="http://www.w3.org/1999/02/22-rdf-syntax-ns#">
   <cc:Work>
    <dc:type rdf:resource="http://purl.org/dc/dcmitype/StillImage"/>
    <dc:date>2026-09-23T19:26:40.077912</dc:date>
    <dc:format>image/svg+xml</dc:format>
    <dc:creator>
     <cc:Agent>
      <dc:title>Matplotlib v3.11.2, https://matplotlib.org/</dc:title>
     </cc:Agent>
    </dc:creator>
   </cc:Work>
  </rdf:RDF>
 </metadata>
 <defs>
  <style type="text/css">*{stroke-linejoin: round; stroke-linecap: butt}</style>
 </defs>
 <g id="figure_1">
  <g id="patch_1">
   <path d="M 0 363.457094 
L 640.448359 363.457094 
L 640.448359 0 
L 0 0 
z
" style="fill: #ffffff"/>
  </g>
  <g id="axes_1">
   <g id="patch_2">
    <path d="M 48.288359 292.746219 
L 633.248359 292.746219 
L 633.248359 23.837812 
L 48.288359 23.837812 
z
" style="fill: #ffffff"/>
   </g>
   <g id="patch_3">
    <path d="M 74.87745 292.746219 
L 103.883731 292.746219 
L 103.883731 284.597479 
L 74.87745 284.597479 
z
" clip-path="url(#p7081271aab)" style="fill: #213e5e"/>
   </g>
   <g id="patch_4">
    <path d="M 268.252657 292.746219 
L 297.258938 292.746219 
L 297.258938 292.746219 
L 268.252657 292.746219 
z
" clip-path="url(#p7081271aab)" style="fill: #213e5e"/>
   </g>
   <g id="patch_5">
    <path d="M 461.627864 292.746219 
L 490.634144 292.746219 
L 490.634144 284.597479 
L 461.627864 284.597479 
z
" clip-path="url(#p7081271aab)" style="fill: #213e5e"/>
   </g>
   <g id="patch_6">
    <path d="M 103.883731 292.746219 
L 132.890012 292.746219 
L 132.890012 284.597479 
L 103.883731 284.597479 
z
" clip-path="url(#p7081271aab)" style="fill: #7c93a8"/>
   </g>
   <g id="patch_7">
    <path d="M 297.258938 292.746219 
L 326.265219 292.746219 
L 326.265219 284.597479 
L 297.258938 284.597479 
z
" clip-path="url(#p7081271aab)" style="fill: #7c93a8"/>
   </g>
   <g id="patch_8">
    <path d="M 490.634144 292.746219 
L 519.640425 292.746219 
L 519.640425 268.3 
L 490.634144 268.3 
z
" clip-path="url(#p7081271aab)" style="fill: #7c93a8"/>
   </g>
   <g id="patch_9">
    <path d="M 132.890012 292.746219 
L 161.896293 292.746219 
L 161.896293 284.597479 
L 132.890012 284.597479 
z
" clip-path="url(#p7081271aab)" style="fill: #5363a1"/>
   </g>
   <g id="patch_10">
    <path d="M 326.265219 292.746219 
L 355.2715 292.746219 
L 355.2715 292.746219 
L 326.265219 292.746219 
z
" clip-path="url(#p7081271aab)" style="fill: #5363a1"/>
   </g>
   <g id="patch_11">
    <path d="M 519.640425 292.746219 
L 548.646706 292.746219 
L 548.646706 268.3 
L 519.640425 268.3 
z
" clip-path="url(#p7081271aab)" style="fill: #5363a1"/>
   </g>
   <g id="patch_12">
    <path d="M 161.896293 292.746219 
L 190.902574 292.746219 
L 190.902574 268.3 
L 161.896293 268.3 
z
" clip-path="url(#p7081271aab)" style="fill: #bc8941"/>
   </g>
   <g id="patch_13">
    <path d="M 355.2715 292.746219 
L 384.277781 292.746219 
L 384.277781 284.597479 
L 355.2715 284.597479 
z
" clip-path="url(#p7081271aab)" style="fill: #bc8941"/>
   </g>
   <g id="patch_14">
    <path d="M 548.646706 292.746219 
L 577.652987 292.746219 
L 577.652987 276.44874 
L 548.646706 276.44874 
z
" clip-path="url(#p7081271aab)" style="fill: #bc8941"/>
   </g>
   <g id="patch_15">
    <path d="M 190.902574 292.746219 
L 219.908855 292.746219 
L 219.908855 276.44874 
L 190.902574 276.44874 
z
" clip-path="url(#p7081271aab)" style="fill: #137e80"/>
   </g>
   <g id="patch_16">
    <path d="M 384.277781 292.746219 
L 413.284062 292.746219 
L 413.284062 292.746219 
L 384.277781 292.746219 
z
" clip-path="url(#p7081271aab)" style="fill: #137e80"/>
   </g>
   <g id="patch_17">
    <path d="M 577.652987 292.746219 
L 606.659268 292.746219 
L 606.659268 284.597479 
L 577.652987 284.597479 
z
" clip-path="url(#p7081271aab)" style="fill: #137e80"/>
   </g>
   <g id="matplotlib.axis_1">
    <g id="xtick_1">
     <g id="line2d_1">
      <defs>
       <path id="m94301e0b40" d="M 0 0 
L 0 3.5 
" style="stroke: #000000; stroke-width: 0.8"/>
      </defs>
      <g>
       <use xlink:href="#m94301e0b40" x="147.393153" y="292.746219" style="stroke: #000000; stroke-width: 0.8"/>
      </g>
     </g>
     <g id="text_1">
      <text style="font-size: 8px; font-family: 'DejaVu Sans'" transform="translate(114.352528 306.62575)">implementation:</text>
      <text style="font-size: 8px; font-family: 'DejaVu Sans'" transform="translate(113.038778 316.227937)">invalid candidate</text>
     </g>
    </g>
    <g id="xtick_2">
     <g id="line2d_2">
      <g>
       <use xlink:href="#m94301e0b40" x="340.768359" y="292.746219" style="stroke: #000000; stroke-width: 0.8"/>
      </g>
     </g>
     <g id="text_2">
      <text style="font-size: 8px; font-family: 'DejaVu Sans'" transform="translate(324.689609 306.62575)">looping:</text>
      <text style="font-size: 8px; font-family: 'DejaVu Sans'" transform="translate(301.602734 316.227937)">repeated candidate</text>
     </g>
    </g>
    <g id="xtick_3">
     <g id="line2d_3">
      <g>
       <use xlink:href="#m94301e0b40" x="534.143566" y="292.746219" style="stroke: #000000; stroke-width: 0.8"/>
      </g>
     </g>
     <g id="text_3">
      <text style="font-size: 8px; font-family: 'DejaVu Sans'" transform="translate(510.379816 306.62575)">verification:</text>
      <text style="font-size: 8px; font-family: 'DejaVu Sans'" transform="translate(488.582941 316.227937)">visible pass hidden fail</text>
     </g>
    </g>
   </g>
   <g id="matplotlib.axis_2">
    <g id="ytick_1">
     <g id="line2d_4">
      <defs>
       <path id="mef5caeb16d" d="M 0 0 
L -3.5 0 
" style="stroke: #000000; stroke-width: 0.8"/>
      </defs>
      <g>
       <use xlink:href="#mef5caeb16d" x="48.288359" y="292.746219" style="stroke: #000000; stroke-width: 0.8"/>
      </g>
     </g>
     <g id="text_4">
      <text style="font-size: 10px; font-family: 'DejaVu Sans'; text-anchor: end" x="41.288359" y="296.545047" transform="rotate(-0 41.288359 296.545047)">0</text>
     </g>
    </g>
    <g id="ytick_2">
     <g id="line2d_5">
      <g>
       <use xlink:href="#mef5caeb16d" x="48.288359" y="243.853781" style="stroke: #000000; stroke-width: 0.8"/>
      </g>
     </g>
     <g id="text_5">
      <text style="font-size: 10px; font-family: 'DejaVu Sans'; text-anchor: end" x="41.288359" y="247.652609" transform="rotate(-0 41.288359 247.652609)">20</text>
     </g>
    </g>
    <g id="ytick_3">
     <g id="line2d_6">
      <g>
       <use xlink:href="#mef5caeb16d" x="48.288359" y="194.961344" style="stroke: #000000; stroke-width: 0.8"/>
      </g>
     </g>
     <g id="text_6">
      <text style="font-size: 10px; font-family: 'DejaVu Sans'; text-anchor: end" x="41.288359" y="198.760172" transform="rotate(-0 41.288359 198.760172)">40</text>
     </g>
    </g>
    <g id="ytick_4">
     <g id="line2d_7">
      <g>
       <use xlink:href="#mef5caeb16d" x="48.288359" y="146.068906" style="stroke: #000000; stroke-width: 0.8"/>
      </g>
     </g>
     <g id="text_7">
      <text style="font-size: 10px; font-family: 'DejaVu Sans'; text-anchor: end" x="41.288359" y="149.867734" transform="rotate(-0 41.288359 149.867734)">60</text>
     </g>
    </g>
    <g id="ytick_5">
     <g id="line2d_8">
      <g>
       <use xlink:href="#mef5caeb16d" x="48.288359" y="97.176469" style="stroke: #000000; stroke-width: 0.8"/>
      </g>
     </g>
     <g id="text_8">
      <text style="font-size: 10px; font-family: 'DejaVu Sans'; text-anchor: end" x="41.288359" y="100.975297" transform="rotate(-0 41.288359 100.975297)">80</text>
     </g>
    </g>
    <g id="ytick_6">
     <g id="line2d_9">
      <g>
       <use xlink:href="#mef5caeb16d" x="48.288359" y="48.284031" style="stroke: #000000; stroke-width: 0.8"/>
      </g>
     </g>
     <g id="text_9">
      <text style="font-size: 10px; font-family: 'DejaVu Sans'; text-anchor: end" x="41.288359" y="52.082859" transform="rotate(-0 41.288359 52.082859)">100</text>
     </g>
    </g>
    <g id="text_10">
     <text style="font-size: 11px; font-family: 'DejaVu Sans'; text-anchor: middle" x="15.558281" y="158.292016" transform="rotate(-90 15.558281 158.292016)">Attempted test runs with label (%)</text>
    </g>
   </g>
   <g id="patch_18">
    <path d="M 48.288359 292.746219 
L 48.288359 23.837812 
" style="fill: none; stroke: #000000; stroke-width: 0.8; stroke-linejoin: miter; stroke-linecap: square"/>
   </g>
   <g id="patch_19">
    <path d="M 48.288359 292.746219 
L 633.248359 292.746219 
" style="fill: none; stroke: #000000; stroke-width: 0.8; stroke-linejoin: miter; stroke-linecap: square"/>
   </g>
   <g id="text_11">
    <text style="font-weight: 700; font-size: 14px; font-family: 'DejaVu Sans'; text-anchor: middle" x="340.768359" y="17.837812" transform="rotate(-0 340.768359 17.837812)">Observed failure proxies</text>
   </g>
   <g id="legend_1">
    <g id="patch_20">
     <path d="M 344.609609 37.116562 
L 360.609609 37.116562 
L 360.609609 31.516562 
L 344.609609 31.516562 
z
" style="fill: #213e5e"/>
    </g>
    <g id="text_12">
     <text style="font-size: 8px; font-family: 'DejaVu Sans'; text-anchor: start" x="367.009609" y="37.116562" transform="rotate(-0 367.009609 37.116562)">Strong only</text>
    </g>
    <g id="patch_21">
     <path d="M 344.609609 49.117188 
L 360.609609 49.117188 
L 360.609609 43.517187 
L 344.609609 43.517187 
z
" style="fill: #7c93a8"/>
    </g>
    <g id="text_13">
     <text style="font-size: 8px; font-family: 'DejaVu Sans'; text-anchor: start" x="367.009609" y="49.117188" transform="rotate(-0 367.009609 49.117188)">Cheap only</text>
    </g>
    <g id="patch_22">
     <path d="M 428.845859 37.116562 
L 444.845859 37.116562 
L 444.845859 31.516562 
L 428.845859 31.516562 
z
" style="fill: #5363a1"/>
    </g>
    <g id="text_14">
     <text style="font-size: 8px; font-family: 'DejaVu Sans'; text-anchor: start" x="451.245859" y="37.116562" transform="rotate(-0 451.245859 37.116562)">Escalate on failure</text>
    </g>
    <g id="patch_23">
     <path d="M 428.845859 49.117188 
L 444.845859 49.117188 
L 444.845859 43.517187 
L 428.845859 43.517187 
z
" style="fill: #bc8941"/>
    </g>
    <g id="text_15">
     <text style="font-size: 8px; font-family: 'DejaVu Sans'; text-anchor: start" x="451.245859" y="49.117188" transform="rotate(-0 451.245859 49.117188)">Static router</text>
    </g>
    <g id="patch_24">
     <path d="M 541.272109 37.116562 
L 557.272109 37.116562 
L 557.272109 31.516562 
L 541.272109 31.516562 
z
" style="fill: #137e80"/>
    </g>
    <g id="text_16">
     <text style="font-size: 8px; font-family: 'DejaVu Sans'; text-anchor: start" x="563.672109" y="37.116562" transform="rotate(-0 563.672109 37.116562)">Adaptive router</text>
    </g>
   </g>
  </g>
  <g id="text_17">
   <text style="font-size: 8px; font-family: 'DejaVu Sans'; text-anchor: start; fill: #526176" x="9.008359" y="354.335219" transform="rotate(-0 9.008359 354.335219)">Nonexclusive labels describe observable events; they do not identify causal planning or localization failures.</text>
  </g>
 </g>
 <defs>
  <clipPath id="p7081271aab">
   <rect x="48.288359" y="23.837812" width="584.96" height="268.908406"/>
  </clipPath>
 </defs>
</svg>
